<?xml version="1.0" encoding="UTF-8" standalone="no"?>
<svg viewBox="0 0 1200 800" xmlns="http://www.w3.org/2000/svg">
  <!-- Window Frame -->
  <rect x="0" y="0" width="1200" height="800" fill="#f0f0f0" stroke="#d0d0d0" stroke-width="1"/>
  
  <!-- Window Title Bar -->
  <rect x="0" y="0" width="1200" height="30" fill="#404040" stroke="none"/>
  <text x="10" y="20" font-family="Arial" font-size="14" fill="white">DefectDetect Pro - Automated Inspection System</text>
  
  <!-- Window Controls -->
  <circle cx="1160" cy="15" r="8" fill="#FF6058" stroke="#E14942" stroke-width="1"/>
  <circle cx="1135" cy="15" r="8" fill="#FFBD2E" stroke="#DFA123" stroke-width="1"/>
  <circle cx="1110" cy="15" r="8" fill="#28CA42" stroke="#1AAA29" stroke-width="1"/>
  
  <!-- Main Layout -->
  <rect x="5" y="35" width="190" height="760" fill="#e8e8e8" stroke="#d0d0d0" stroke-width="1"/>
  <rect x="200" y="35" width="800" height="560" fill="#ffffff" stroke="#d0d0d0" stroke-width="1"/>
  <rect x="1005" y="35" width="190" height="760" fill="#e8e8e8" stroke="#d0d0d0" stroke-width="1"/>
  <rect x="200" y="600" width="800" height="195" fill="#ffffff" stroke="#d0d0d0" stroke-width="1"/>
  
  <!-- Toolbar -->
  <rect x="200" y="35" width="800" height="40" fill="#f5f5f5" stroke="#d0d0d0" stroke-width="1"/>
  
  <!-- Toolbar Buttons -->
  <rect x="210" y="40" width="80" height="30" rx="3" ry="3" fill="#4a86e8" stroke="none"/>
  <text x="230" y="60" font-family="Arial" font-size="12" fill="white">Load Image</text>
  
  <rect x="300" y="40" width="80" height="30" rx="3" ry="3" fill="#4a86e8" stroke="none"/>
  <text x="315" y="60" font-family="Arial" font-size="12" fill="white">Live Camera</text>
  
  <rect x="390" y="40" width="80" height="30" rx="3" ry="3" fill="#4a86e8" stroke="none"/>
  <text x="405" y="60" font-family="Arial" font-size="12" fill="white">Run Detection</text>
  
  <rect x="480" y="40" width="80" height="30" rx="3" ry="3" fill="#4a86e8" stroke="none"/>
  <text x="499" y="60" font-family="Arial" font-size="12" fill="white">Settings</text>
  
  <rect x="570" y="40" width="90" height="30" rx="3" ry="3" fill="#4a86e8" stroke="none"/>
  <text x="582" y="60" font-family="Arial" font-size="12" fill="white">Export Results</text>
  
  <rect x="670" y="40" width="80" height="30" rx="3" ry="3" fill="#4a86e8" stroke="none"/>
  <text x="682" y="60" font-family="Arial" font-size="12" fill="white">Batch Mode</text>
  
  <rect x="760" y="40" width="80" height="30" rx="3" ry="3" fill="#4a86e8" stroke="none"/>
  <text x="784" y="60" font-family="Arial" font-size="12" fill="white">Help</text>
  
  <!-- Main Image View -->
  <rect x="220" y="85" width="760" height="500" fill="#ffffff" stroke="#d0d0d0" stroke-width="1"/>
  
  <!-- Sample Image -->
  <rect x="235" y="95" width="730" height="480" fill="#f5f5f5" stroke="#d0d0d0" stroke-width="1"/>
  
  <!-- Sample Defect Detection Image -->
  <rect x="250" y="110" width="700" height="450" fill="#e0e0e0" stroke="none"/>
  
  <!-- PCB Sample Image -->
  <rect x="250" y="110" width="700" height="450" fill="#2d3436" stroke="none"/>
  <rect x="300" y="150" width="600" height="380" fill="#636e72" stroke="none"/>
  
  <!-- PCB Components -->
  <rect x="320" y="170" width="80" height="80" fill="#74b9ff" stroke="none"/>
  <rect x="420" y="170" width="120" height="20" fill="#55efc4" stroke="none"/>
  <rect x="420" y="200" width="120" height="20" fill="#55efc4" stroke="none"/>
  <rect x="420" y="230" width="120" height="20" fill="#55efc4" stroke="none"/>
  <rect x="320" y="270" width="60" height="60" fill="#a29bfe" stroke="none"/>
  <rect x="400" y="270" width="60" height="60" fill="#a29bfe" stroke="none"/>
  <rect x="480" y="270" width="60" height="60" fill="#a29bfe" stroke="none"/>
  <rect x="560" y="270" width="60" height="60" fill="#a29bfe" stroke="none"/>
  <rect x="640" y="270" width="60" height="60" fill="#a29bfe" stroke="none"/>
  <rect x="720" y="270" width="60" height="60" fill="#a29bfe" stroke="none"/>
  <rect x="320" y="350" width="200" height="30" fill="#ffeaa7" stroke="none"/>
  <rect x="320" y="400" width="200" height="100" fill="#00cec9" stroke="none"/>
  <rect x="540" y="350" width="200" height="150" fill="#fd79a8" stroke="none"/>
  
  <!-- Defect Highlight -->
  <rect x="720" y="270" width="60" height="60" fill="none" stroke="#ff0000" stroke-width="3" stroke-dasharray="5,5"/>
  <circle cx="750" cy="300" r="20" fill="none" stroke="#ff0000" stroke-width="2"/>
  <text x="745" y="305" font-family="Arial" font-size="14" fill="#ff0000">X</text>
  
  <!-- Defect Tag -->
  <rect x="770" y="250" width="100" height="25" fill="#ffffff" stroke="#ff0000" stroke-width="1"/>
  <text x="780" y="267" font-family="Arial" font-size="12" fill="#ff0000">Solder Defect</text>
  <line x1="750" y1="300" x2="770" y2="262" stroke="#ff0000" stroke-width="1"/>
  
  <!-- Bottom Panel -->
  <rect x="200" y="600" width="800" height="30" fill="#f5f5f5" stroke="#d0d0d0" stroke-width="1"/>
  <text x="210" y="620" font-family="Arial" font-size="14" font-weight="bold" fill="#333333">Results &amp; Analysis</text>
  
  <!-- Results Area -->
  <rect x="210" y="640" width="780" height="145" fill="#ffffff" stroke="#d0d0d0" stroke-width="1"/>
  
  <!-- Results Table -->
  <rect x="220" y="650" width="760" height="25" fill="#e0e0e0" stroke="#d0d0d0" stroke-width="1"/>
  <text x="230" y="667" font-family="Arial" font-size="12" font-weight="bold" fill="#333333">ID</text>
  <text x="280" y="667" font-family="Arial" font-size="12" font-weight="bold" fill="#333333">Defect Type</text>
  <text x="400" y="667" font-family="Arial" font-size="12" font-weight="bold" fill="#333333">Location</text>
  <text x="490" y="667" font-family="Arial" font-size="12" font-weight="bold" fill="#333333">Size (px)</text>
  <text x="580" y="667" font-family="Arial" font-size="12" font-weight="bold" fill="#333333">Confidence</text>
  <text x="670" y="667" font-family="Arial" font-size="12" font-weight="bold" fill="#333333">Severity</text>
  <text x="760" y="667" font-family="Arial" font-size="12" font-weight="bold" fill="#333333">Action</text>
  
  <!-- Results Row 1 -->
  <rect x="220" y="675" width="760" height="25" fill="#ffffff" stroke="#d0d0d0" stroke-width="1"/>
  <text x="230" y="692" font-family="Arial" font-size="12" fill="#333333">1</text>
  <text x="280" y="692" font-family="Arial" font-size="12" fill="#333333">Solder Defect</text>
  <text x="400" y="692" font-family="Arial" font-size="12" fill="#333333">X: 750, Y: 300</text>
  <text x="490" y="692" font-family="Arial" font-size="12" fill="#333333">40 x 40</text>
  <text x="580" y="692" font-family="Arial" font-size="12" fill="#333333">98.7%</text>
  <text x="670" y="692" font-family="Arial" font-size="12" fill="#ff0000">Critical</text>
  <rect x="760" y="678" width="70" height="18" rx="3" ry="3" fill="#4a86e8" stroke="none"/>
  <text x="773" y="692" font-family="Arial" font-size="11" fill="white">Details</text>
  
  <!-- Results Row 2 -->
  <rect x="220" y="700" width="760" height="25" fill="#f9f9f9" stroke="#d0d0d0" stroke-width="1"/>
  <text x="230" y="717" font-family="Arial" font-size="12" fill="#333333">2</text>
  <text x="280" y="717" font-family="Arial" font-size="12" fill="#333333">Component Misalignment</text>
  <text x="400" y="717" font-family="Arial" font-size="12" fill="#333333">X: 420, Y: 170</text>
  <text x="490" y="717" font-family="Arial" font-size="12" fill="#333333">30 x 20</text>
  <text x="580" y="717" font-family="Arial" font-size="12" fill="#333333">87.5%</text>
  <text x="670" y="717" font-family="Arial" font-size="12" fill="#ff9900">Medium</text>
  <rect x="760" y="703" width="70" height="18" rx="3" ry="3" fill="#4a86e8" stroke="none"/>
  <text x="773" y="717" font-family="Arial" font-size="11" fill="white">Details</text>
  
  <!-- Results Row 3 -->
  <rect x="220" y="725" width="760" height="25" fill="#ffffff" stroke="#d0d0d0" stroke-width="1"/>
  <text x="230" y="742" font-family="Arial" font-size="12" fill="#333333">3</text>
  <text x="280" y="742" font-family="Arial" font-size="12" fill="#333333">Trace Break</text>
  <text x="400" y="742" font-family="Arial" font-size="12" fill="#333333">X: 540, Y: 420</text>
  <text x="490" y="742" font-family="Arial" font-size="12" fill="#333333">15 x 5</text>
  <text x="580" y="742" font-family="Arial" font-size="12" fill="#333333">92.3%</text>
  <text x="670" y="742" font-family="Arial" font-size="12" fill="#ffcc00">Low</text>
  <rect x="760" y="728" width="70" height="18" rx="3" ry="3" fill="#4a86e8" stroke="none"/>
  <text x="773" y="742" font-family="Arial" font-size="11" fill="white">Details</text>
  
  <!-- Results Summary -->
  <rect x="220" y="750" width="760" height="25" fill="#e0e0e0" stroke="#d0d0d0" stroke-width="1"/>
  <text x="230" y="767" font-family="Arial" font-size="12" font-weight="bold" fill="#333333">Total Defects: 3</text>
  <text x="400" y="767" font-family="Arial" font-size="12" font-weight="bold" fill="#333333">Critical: 1</text>
  <text x="520" y="767" font-family="Arial" font-size="12" font-weight="bold" fill="#333333">Medium: 1</text>
  <text x="640" y="767" font-family="Arial" font-size="12" font-weight="bold" fill="#333333">Low: 1</text>
  
  <!-- Left Panel - Detection Controls -->
  <text x="20" y="55" font-family="Arial" font-size="14" font-weight="bold" fill="#333333">Model Controls</text>
  
  <!-- Model Selection -->
  <text x="20" y="85" font-family="Arial" font-size="12" fill="#333333">Detection Model:</text>
  <rect x="20" y="95" width="160" height="25" rx="3" ry="3" fill="#ffffff" stroke="#d0d0d0" stroke-width="1"/>
  <text x="30" y="112" font-family="Arial" font-size="12" fill="#333333">PCB Defect Model v2.1</text>
  <polygon points="165,107 175,100 175,114" fill="#333333" stroke="none"/>
  
  <!-- Confidence Threshold -->
  <text x="20" y="140" font-family="Arial" font-size="12" fill="#333333">Confidence Threshold:</text>
  <rect x="20" y="150" width="160" height="10" rx="5" ry="5" fill="#e0e0e0" stroke="#d0d0d0" stroke-width="1"/>
  <circle cx="120" cy="155" r="8" fill="#4a86e8" stroke="#ffffff" stroke-width="2"/>
  <text x="160" y="172" font-family="Arial" font-size="12" fill="#333333">75%</text>
  
  <!-- IoU Threshold -->
  <text x="20" y="195" font-family="Arial" font-size="12" fill="#333333">IoU Threshold:</text>
  <rect x="20" y="205" width="160" height="10" rx="5" ry="5" fill="#e0e0e0" stroke="#d0d0d0" stroke-width="1"/>
  <circle cx="90" cy="210" r="8" fill="#4a86e8" stroke="#ffffff" stroke-width="2"/>
  <text x="160" y="227" font-family="Arial" font-size="12" fill="#333333">0.5</text>
  
  <!-- Detection Classes -->
  <text x="20" y="250" font-family="Arial" font-size="12" fill="#333333">Defect Classes:</text>
  <rect x="20" y="260" width="160" height="25" rx="3" ry="3" fill="#ffffff" stroke="#d0d0d0" stroke-width="1"/>
  <text x="30" y="277" font-family="Arial" font-size="12" fill="#333333">Solder Defect</text>
  <rect x="150" y="265" width="15" height="15" rx="2" ry="2" fill="#ffffff" stroke="#d0d0d0" stroke-width="1"/>
  <polyline points="152,273 156,277 163,268" stroke="#4a86e8" stroke-width="2" fill="none"/>
  
  <rect x="20" y="290" width="160" height="25" rx="3" ry="3" fill="#ffffff" stroke="#d0d0d0" stroke-width="1"/>
  <text x="30" y="307" font-family="Arial" font-size="12" fill="#333333">Component Misalignment</text>
  <rect x="150" y="295" width="15" height="15" rx="2" ry="2" fill="#ffffff" stroke="#d0d0d0" stroke-width="1"/>
  <polyline points="152,303 156,307 163,298" stroke="#4a86e8" stroke-width="2" fill="none"/>
  
  <rect x="20" y="320" width="160" height="25" rx="3" ry="3" fill="#ffffff" stroke="#d0d0d0" stroke-width="1"/>
  <text x="30" y="337" font-family="Arial" font-size="12" fill="#333333">Trace Break</text>
  <rect x="150" y="325" width="15" height="15" rx="2" ry="2" fill="#ffffff" stroke="#d0d0d0" stroke-width="1"/>
  <polyline points="152,333 156,337 163,328" stroke="#4a86e8" stroke-width="2" fill="none"/>
  
  <rect x="20" y="350" width="160" height="25" rx="3" ry="3" fill="#ffffff" stroke="#d0d0d0" stroke-width="1"/>
  <text x="30" y="367" font-family="Arial" font-size="12" fill="#333333">Missing Component</text>
  <rect x="150" y="355" width="15" height="15" rx="2" ry="2" fill="#ffffff" stroke="#d0d0d0" stroke-width="1"/>
  <polyline points="152,363 156,367 163,358" stroke="#4a86e8" stroke-width="2" fill="none"/>
  
  <!-- Detection Mode -->
  <text x="20" y="400" font-family="Arial" font-size="12" fill="#333333">Detection Mode:</text>
  <rect x="20" y="410" width="160" height="30" rx="3" ry="3" fill="#ffffff" stroke="#d0d0d0" stroke-width="1"/>
  <circle cx="35" cy="425" r="8" fill="#ffffff" stroke="#4a86e8" stroke-width="2"/>
  <circle cx="35" cy="425" r="4" fill="#4a86e8" stroke="none"/>
  <text x="50" y="429" font-family="Arial" font-size="12" fill="#333333">Standard</text>
  
  <rect x="20" y="445" width="160" height="30" rx="3" ry="3" fill="#ffffff" stroke="#d0d0d0" stroke-width="1"/>
  <circle cx="35" cy="460" r="8" fill="#ffffff" stroke="#d0d0d0" stroke-width="2"/>
  <text x="50" y="464" font-family="Arial" font-size="12" fill="#333333">High Precision</text>
  
  <rect x="20" y="480" width="160" height="30" rx="3" ry="3" fill="#ffffff" stroke="#d0d0d0" stroke-width="1"/>
  <circle cx="35" cy="495" r="8" fill="#ffffff" stroke="#d0d0d0" stroke-width="2"/>
  <text x="50" y="499" font-family="Arial" font-size="12" fill="#333333">High Recall</text>
  
  <!-- Run Button -->
  <rect x="20" y="530" width="160" height="40" rx="5" ry="5" fill="#4caf50" stroke="none"/>
  <text x="66" y="555" font-family="Arial" font-size="14" font-weight="bold" fill="white">Run Detection</text>
  
  <!-- Right Panel - Properties and Statistics -->
  <text x="1020" y="55" font-family="Arial" font-size="14" font-weight="bold" fill="#333333">Properties &amp; Stats</text>
  
  <!-- Image Properties -->
  <rect x="1020" y="65" width="160" height="120" fill="#ffffff" stroke="#d0d0d0" stroke-width="1"/>
  <text x="1030" y="85" font-family="Arial" font-size="12" font-weight="bold" fill="#333333">Image Properties</text>
  <text x="1030" y="105" font-family="Arial" font-size="11" fill="#333333">File: pcb_sample_042.jpg</text>
  <text x="1030" y="125" font-family="Arial" font-size="11" fill="#333333">Size: 1920 x 1080 px</text>
  <text x="1030" y="145" font-family="Arial" font-size="11" fill="#333333">Type: PCB Assembly</text>
  <text x="1030" y="165" font-family="Arial" font-size="11" fill="#333333">Date: 2025-05-15</text>
  
  <!-- Analysis Statistics -->
  <rect x="1020" y="195" width="160" height="150" fill="#ffffff" stroke="#d0d0d0" stroke-width="1"/>
  <text x="1030" y="215" font-family="Arial" font-size="12" font-weight="bold" fill="#333333">Analysis Statistics</text>
  <text x="1030" y="235" font-family="Arial" font-size="11" fill="#333333">Processing Time: 1.2s</text>
  <text x="1030" y="255" font-family="Arial" font-size="11" fill="#333333">Defects Found: 3</text>
  <text x="1030" y="275" font-family="Arial" font-size="11" fill="#333333">Pass/Fail: FAIL</text>
  <rect x="1090" y="265" width="50" height="20" rx="3" ry="3" fill="#ff0000" stroke="none"/>
  <text x="1100" y="280" font-family="Arial" font-size="12" fill="#ffffff">FAIL</text>
  <text x="1030" y="295" font-family="Arial" font-size="11" fill="#333333">Model Version: 2.1.3</text>
  <text x="1030" y="315" font-family="Arial" font-size="11" fill="#333333">Total Processed: 42</text>
  <text x="1030" y="335" font-family="Arial" font-size="11" fill="#333333">Error Rate: 7.1%</text>
  
  <!-- Selected Defect -->
  <rect x="1020" y="355" width="160" height="200" fill="#ffffff" stroke="#d0d0d0" stroke-width="1"/>
  <text x="1030" y="375" font-family="Arial" font-size="12" font-weight="bold" fill="#333333">Selected Defect</text>
  <text x="1030" y="395" font-family="Arial" font-size="11" fill="#333333">ID: 1</text>
  <text x="1030" y="415" font-family="Arial" font-size="11" fill="#333333">Type: Solder Defect</text>
  <text x="1030" y="435" font-family="Arial" font-size="11" fill="#333333">Position: X: 750, Y: 300</text>
  <text x="1030" y="455" font-family="Arial" font-size="11" fill="#333333">Size: 40 x 40 px</text>
  <text x="1030" y="475" font-family="Arial" font-size="11" fill="#333333">Area: 1,600 sq px</text>
  <text x="1030" y="495" font-family="Arial" font-size="11" fill="#333333">Confidence: 98.7%</text>
  <text x="1030" y="515" font-family="Arial" font-size="11" fill="#333333">Severity: Critical</text>
  <rect x="1090" y="505" width="60" height="20" rx="3" ry="3" fill="#ff0000" stroke="none"/>
  <text x="1095" y="520" font-family="Arial" font-size="12" fill="#ffffff">Critical</text>
  <text x="1030" y="535" font-family="Arial" font-size="11" fill="#333333">Action: Reject</text>
  
  <!-- Defect Zoom View -->
  <rect x="1020" y="565" width="160" height="160" fill="#ffffff" stroke="#d0d0d0" stroke-width="1"/>
  <text x="1055" y="585" font-family="Arial" font-size="12" font-weight="bold" fill="#333333">Zoom View</text>
  <rect x="1030" y="595" width="140" height="120" fill="#2d3436" stroke="#d0d0d0" stroke-width="1"/>
  <circle cx="1100" cy="655" r="40" fill="#fd79a8" stroke="none"/>
  <circle cx="1100" cy="655" r="40" fill="none" stroke="#ff0000" stroke-width="2"/>
  <text x="1095" y="660" font-family="Arial" font-size="18" fill="#ff0000">X</text>
  
  <!-- Zoom Controls -->
  <rect x="1050" y="725" width="25" height="25" rx="3" ry="3" fill="#f5f5f5" stroke="#d0d0d0" stroke-width="1"/>
  <text x="1058" y="743" font-family="Arial" font-size="18" font-weight="bold" fill="#333333">+</text>
  <rect x="1085" y="725" width="25" height="25" rx="3" ry="3" fill="#f5f5f5" stroke="#d0d0d0" stroke-width="1"/>
  <text x="1093" y="743" font-family="Arial" font-size="18" font-weight="bold" fill="#333333">-</text>
  <rect x="1120" y="725" width="25" height="25" rx="3" ry="3" fill="#f5f5f5" stroke="#d0d0d0" stroke-width="1"/>
  <text x="1128" y="743" font-family="Arial" font-size="18" font-weight="bold" fill="#333333">↺</text>
  
  <!-- Status Bar -->
  <rect x="0" y="780" width="1200" height="20" fill="#404040" stroke="none"/>
  <text x="10" y="795" font-family="Arial" font-size="12" fill="#ffffff">Status: Detection Complete | 3 Defects Found | Processing Time: 1.2s | Ready</text>
</svg>
